<svg xmlns="http://www.w3.org/2000/svg" viewBox="0 0 12 16"><defs><style>.cls-1{isolation:isolate;}.cls-2{fill:#333;}.cls-3{fill:none;}</style></defs><title>chevron-left</title><g id="レイヤー_2" data-name="レイヤー 2"><g id="レイヤー_1-2" data-name="レイヤー 1"><g id="chevron-left" class="cls-1"><g class="cls-1"><path class="cls-2" d="M7.89,2a.6.6,0,0,1,.46-.19A.64.64,0,0,1,8.82,2l.6.6a.72.72,0,0,1,.2.47.6.6,0,0,1-.17.46L5.21,7.75,9.45,12a.6.6,0,0,1,.17.46.72.72,0,0,1-.2.47l-.6.6a.64.64,0,0,1-.47.19.6.6,0,0,1-.46-.19L2.58,8.21a.59.59,0,0,1,0-.92Z"/></g></g><rect class="cls-3" width="12" height="16"/></g></g></svg>