<svg xmlns="http://www.w3.org/2000/svg" viewBox="0 0 12 16"><defs><style>.cls-1{isolation:isolate;}.cls-2{fill:#333;}.cls-3{fill:none;}</style></defs><title>chevron-right</title><g id="レイヤー_2" data-name="レイヤー 2"><g id="レイヤー_1-2" data-name="レイヤー 1"><g id="chevron-right" class="cls-1"><g class="cls-1"><path class="cls-2" d="M4.11,13.52a.6.6,0,0,1-.46.19.64.64,0,0,1-.47-.19l-.6-.6a.67.67,0,0,1-.2-.47A.6.6,0,0,1,2.55,12L6.79,7.75,2.55,3.51a.6.6,0,0,1-.17-.46.67.67,0,0,1,.2-.47l.6-.6a.64.64,0,0,1,.47-.19A.6.6,0,0,1,4.11,2L9.42,7.29a.59.59,0,0,1,0,.92Z"/></g></g><rect class="cls-3" width="12" height="16"/></g></g></svg>